PathFileType	4	(X/Y/Z)	15_2_41_p0_0-691_filt_butterworth.trc
DataRate	CameraRate	NumFrames	NumMarkers	Units	OrigDataRate	OrigDataStartFrame	OrigNumFrames
59.0	59.0	5	27	m	59.0	431	691
Frame#	Time	RHip			RKnee			RAnkle			RBigToe			RSmallToe			RHeel			LHip			LKnee			LAnkle			LBigToe			LSmallToe			LHeel			Neck			Head			Nose			RShoulder			RElbow			RWrist			RThumb			RIndex			RPinky			LShoulder			LElbow			LWrist			LThumb			LIndex			LPinky			
		X1	Y1	Z1	X2	Y2	Z2	X3	Y3	Z3	X4	Y4	Z4	X5	Y5	Z5	X6	Y6	Z6	X7	Y7	Z7	X8	Y8	Z8	X9	Y9	Z9	X10	Y10	Z10	X11	Y11	Z11	X12	Y12	Z12	X13	Y13	Z13	X14	Y14	Z14	X15	Y15	Z15	X16	Y16	Z16	X17	Y17	Z17	X18	Y18	Z18	X19	Y19	Z19	X20	Y20	Z20	X21	Y21	Z21	X22	Y22	Z22	X23	Y23	Z23	X24	Y24	Z24	X25	Y25	Z25	X26	Y26	Z26	X27	Y27	Z27	
431	7.305084745762712	0.2387248324621178	0.31284857729852317	1.1006889449944925	0.24917340727394063	0.2310418267053188	1.5105409118584174	0.27091868903852906	0.21716660852129144	1.9116935057262503	0.24701967918371232	0.045517518741851046	1.9136191978396813	0.3132843912009547	0.05069957788503318	1.895201917362527	0.253435501631671	0.2698832012192859	1.9734300779400418	0.004535758201968639	0.33251581990188883	1.1171578298937446	0.030306419446297295	0.24313338113864885	1.5286665362094847	0.0519536449122102	0.23745647793398542	1.906456920319269	0.048820260448421644	0.10486222988766684	1.9482163853015835	0.0085516415419301	0.10583904458260572	1.9338413394011513	0.06905171577428261	0.25851244293673303	1.9458136232545604	0.09859820119957624	0.48869211438163707	0.5554262682032317	0.10263817277175653	0.47531548306153526	0.30100365665665646	0.09575099398308272	0.39452212341637033	0.413370474300558	0.2484196515293287	0.4166413231149355	0.6203185349800496	0.3164161656229404	0.36336945327010123	0.8616326233432151	0.18282034937473093	0.16864930764228908	0.937139357779116	0.09157228757770847	0.1286664512923368	0.9683832079555292	0.0854993104622403	0.12485965092353633	0.9797834623242458	0.11024254735377723	0.1708775232406431	1.0321207886098116	-0.05628467628216671	0.40986141811921056	0.6098166437804158	-0.10278132156905481	0.3617563192308281	0.8569640768030683	0.020740950789539737	0.1930555929404857	0.9731206826900245	0.09425288116575165	0.12932796055378779	0.9622320146203965	0.10914431827070119	0.13169734058967442	0.9906576380490646	0.10787774152871113	0.16780270523615104	1.0371936476430434
432	7.322033898305085	0.2386310722924944	0.3129615565048145	1.1006294365920652	0.24806411209601198	0.2283855223288144	1.5087183816892726	0.27009635019940564	0.2170584619885606	1.910325062234403	0.24698237119653635	0.045461029556631186	1.9137034599167524	0.3119629024182973	0.050018873076058484	1.896302139187573	0.25330063747669773	0.2697971494257352	1.9731648357929177	0.004673501869312773	0.333015341568311	1.1158701514496958	0.029604163805743954	0.24046088060280255	1.5260032102749799	0.05199152973188124	0.23738616524951128	1.9065420345161213	0.048191618559943875	0.10506916008147012	1.9480781233407236	0.007620329680823707	0.10639018397831285	1.9346163810114845	0.06984208729461232	0.2590361994022172	1.9461743865302692	0.09858051376240934	0.48868485618508534	0.5554223739048703	0.10180300072790019	0.4783082074799207	0.30174285109620796	0.09580606744751961	0.3945734149361211	0.4133970551989383	0.24834504430843343	0.41646323039712274	0.6202504840575619	0.31721533740504115	0.3681561840192298	0.8637349929456529	0.1826819693097668	0.16889842633092522	0.9361948345908555	0.09157046032923968	0.12502981365355634	0.9664031383553023	0.08548701330240456	0.12478150552407194	0.9797437200102951	0.11021704216373143	0.17134267228881878	1.0309996246704478	-0.05771267222162341	0.41351491956743625	0.6119309468098577	-0.10278179877407934	0.3617330256627912	0.8569042856382776	0.020711158254683677	0.19308200405040235	0.9731074366079449	0.09306363721245987	0.12578165569598318	0.9602347658232588	0.10900953333583857	0.12602421336277905	0.9866457860628028	0.1078766844293499	0.16782675072600822	1.0363111897250514
433	7.338983050847458	0.23813899117893406	0.3121343587597282	1.099672532176686	0.24656462014382655	0.2248771335566855	1.5066595438110102	0.2688659709713691	0.21698997505158285	1.9077523917954868	0.24687257161413761	0.04522548921015024	1.9140835411174715	0.3109961693552007	0.049249354310364236	1.8976853349314362	0.2531568942726126	0.2696141923029382	1.9728927315265472	0.004774113415484616	0.3333756229558808	1.1148324668602314	0.028655675852026257	0.23686420922070411	1.5226729573596713	0.05191531961616844	0.23729806714568186	1.9067064426198872	0.04786297456915719	0.10415206458229143	1.9479092090731496	0.006982491599834551	0.10653394317933788	1.9355018584243673	0.07012310265719898	0.2608826951854434	1.9472084379226673	0.09856743499368811	0.48867275144148276	0.5554188442226484	0.10147892242089587	0.4794855942523905	0.30202359453755045	0.09572558436173667	0.39453329594773784	0.4133920305190002	0.2483336338666775	0.4164412662394936	0.6202436185389193	0.3178659276874319	0.3717170552092064	0.8653395838551396	0.18262014243100605	0.16898478168741032	0.9358209078510535	0.09159105201968618	0.124068278875759	0.9659904197313564	0.08554806489085978	0.12469563445644577	0.9802702634041591	0.11020994280250576	0.17151157410464235	1.0307147446487859	-0.058814062384826477	0.4161630425680368	0.613715227411122	-0.10318782854474533	0.36291940495333513	0.8574780166832062	0.020691349816566014	0.19309201335964837	0.9730918636001051	0.09334983095136372	0.12435301590100792	0.9594950638096563	0.10889826926351433	0.12170264125186389	0.9844656548262973	0.10787959502974724	0.16777729519101853	1.035956964068495
434	7.3559322033898304	0.2372996868606643	0.30971678476291703	1.0973973797718533	0.24554016478327598	0.22223911546127278	1.505938386705511	0.267864018618522	0.2169637851083805	1.9054306116151123	0.24670138712733264	0.0449179250021389	1.9147742154397152	0.3104699892563748	0.04860991898040559	1.898163647196412	0.253014253692984	0.2693267593693652	1.9725637390305557	0.004807707544630477	0.33347432726526705	1.1144563157979257	0.02785435364337524	0.23407710231106457	1.5203859100202373	0.05162323044557311	0.23725900785847365	1.906956154507212	0.04846515472930017	0.10126964280009462	1.9473582184614606	0.007028751720895568	0.1053439771204671	1.9362244602739112	0.06887572106690776	0.26445089804400645	1.9501586548659566	0.09856158906802223	0.48866828819342617	0.5554101415307955	0.10147483543219776	0.4794953687181013	0.3020304456400597	0.09518857380189596	0.3942139514994249	0.4133373846317771	0.24838843312311606	0.41660139304042265	0.6203120648906641	0.3180748309800696	0.37290646642618713	0.8659761052301783	0.18261394040149517	0.168980055276517	0.935810898353445	0.09160605800501319	0.1243305727024718	0.9662137180155976	0.08560134992261366	0.12466486438514508	0.980679416098855	0.1102223632704486	0.17152528058501063	1.0308617871113088	-0.059258849073760285	0.417049697629878	0.6147150607157728	-0.10424832151572551	0.3660421659129835	0.8590411440729491	0.020687296647865217	0.1930771090069848	0.9730643292226455	0.09479619691304896	0.12359186937900316	0.9594862908219336	0.10861232563540067	0.11971374189763513	0.9832350626043878	0.10788476155226814	0.16773625382657717	1.0359453767404718
435	7.372881355932203	0.23683258351109243	0.3062420566465662	1.0945946380431597	0.24524730299611325	0.22118516963550253	1.5067509942462098	0.2680074289176566	0.2169601354911529	1.905469449833154	0.24656374111597462	0.044720242933192086	1.9155515102971767	0.3102710034100255	0.048431694016435115	1.8973137777356184	0.2530098974615911	0.26926737400975836	1.9726703948098918	0.004777624578090429	0.33332851405817865	1.1148231821296106	0.0273475279388151	0.23290555741400268	1.5198888931647494	0.05115814214393072	0.23740281095299476	1.9072423993834193	0.04987748787704159	0.09719104512853224	1.9463792587549313	0.007942986504500116	0.10237624969339162	1.9359526090319814	0.066557972290586	0.26895235788099836	1.9542051968404501	0.09855572676256172	0.48868746049708506	0.5553786467066858	0.10153800088419011	0.47921415948555957	0.30198757570962576	0.09407857188763824	0.39354829637413097	0.4132411824950209	0.24848658349515595	0.4168914059132433	0.6204388935097988	0.3176657258267656	0.3724489777411022	0.8663182935484824	0.18262353554535357	0.16896318109219677	0.9358948893191397	0.09160531979853195	0.12463536457122304	0.9663969380527156	0.08559132099957018	0.12466119295851827	0.9807987471866917	0.110236865075646	0.17149636327699727	1.0311125017429985	-0.059259941509844885	0.4169842506740298	0.6149903098016357	-0.10565988536297863	0.3701919662086482	0.8611290726026598	0.02069559534996422	0.19303998561540198	0.9730242644937267	0.09611517556467089	0.12273753156641777	0.9597443395948357	0.10843894385986312	0.12045875895519816	0.9820389264488181	0.10789350174139878	0.1676999816545073	1.0360857231981593
